<?xml version="1.0" encoding="utf-8"?>
<!-- Generator: Adobe Illustrator 24.0.2, SVG Export Plug-In . SVG Version: 6.00 Build 0)  -->
<!DOCTYPE svg PUBLIC "-//W3C//DTD SVG 1.1//EN" "http://www.w3.org/Graphics/SVG/1.1/DTD/svg11.dtd" [
	<!ENTITY ns_extend "http://ns.adobe.com/Extensibility/1.0/">
	<!ENTITY ns_ai "http://ns.adobe.com/AdobeIllustrator/10.0/">
	<!ENTITY ns_graphs "http://ns.adobe.com/Graphs/1.0/">
	<!ENTITY ns_vars "http://ns.adobe.com/Variables/1.0/">
	<!ENTITY ns_imrep "http://ns.adobe.com/ImageReplacement/1.0/">
	<!ENTITY ns_sfw "http://ns.adobe.com/SaveForWeb/1.0/">
	<!ENTITY ns_custom "http://ns.adobe.com/GenericCustomNamespace/1.0/">
	<!ENTITY ns_adobe_xpath "http://ns.adobe.com/XPath/1.0/">
]>
<svg version="1.1" id="Layer_1" xmlns:x="&ns_extend;" xmlns:i="&ns_ai;" xmlns:graph="&ns_graphs;"
	 xmlns="http://www.w3.org/2000/svg" xmlns:xlink="http://www.w3.org/1999/xlink" x="0px" y="0px" viewBox="0 0 1278.7 300"
	 style="enable-background:new 0 0 1278.7 300;" xml:space="preserve">
<style type="text/css">
	.st0{fill:#EB6707;}
	.st1{fill-rule:evenodd;clip-rule:evenodd;fill:#EB6707;}
</style>
<metadata>
	<sfw  xmlns="&ns_sfw;">
		<slices></slices>
		<sliceSourceBounds  bottomLeftOrigin="true" height="236" width="1251.7" x="18.3" y="40"></sliceSourceBounds>
	</sfw>
</metadata>
<g>
	<g id="PROMINENCE">
		<rect x="1205.5" y="169.8" class="st0" width="64.5" height="21.2"/>
		<rect x="1205.5" y="131.1" class="st0" width="64.5" height="21.2"/>
		<rect x="1205.5" y="94" class="st0" width="64.5" height="21.2"/>
		<path class="st0" d="M1141.8,113.5c9.7,0,18,4.4,22.2,11.8l18.9-11c-8.4-13.6-23.7-22.2-41.2-22.2c-29,0-50,21.7-50,50
			s21,50,50,50c17.6,0,32.9-8.6,41.2-22.2l-18.9-11c-4.1,7.4-12.5,11.8-22.2,11.8c-17,0-28-11.4-28-28.5S1124.8,113.5,1141.8,113.5z
			"/>
		<polygon class="st0" points="1048.9,146.7 1012.8,95.2 996.7,95.2 996.7,190 1018.1,190 1018.1,138.5 1054.3,190 1070.4,190 
			1070.4,95.2 1048.9,95.2 		"/>
		<rect x="908.4" y="168.8" class="st0" width="64.5" height="21.2"/>
		<rect x="908.4" y="131.1" class="st0" width="64.5" height="21.2"/>
		<rect x="908.4" y="93.8" class="st0" width="64.5" height="21.2"/>
		<polygon class="st0" points="862.7,146.7 826.5,95.2 810.4,95.2 810.4,190 831.9,190 831.9,138.5 868,190 884.1,190 884.1,95.2 
			862.7,95.2 		"/>
		<polygon class="st0" points="729,190 729,94.6 707.2,94.6 681.4,137 655.5,94.6 633.7,94.6 633.7,190 655.5,190 655.5,134.5 
			680.1,175 682.6,175 707.2,134.5 707.2,190 		"/>
		<rect x="759.1" y="94.6" class="st0" width="21.8" height="95.3"/>
		<path class="st0" d="M558.1,92.7c-27.4,0-49.6,21.5-49.6,49.6c0,28.1,22.2,49.6,49.6,49.6c27.4,0,49.6-21.5,49.6-49.6
			C607.7,114.3,585.5,92.7,558.1,92.7z M558.1,170.6c-15.5,0-27.8-11.3-27.8-28.3s12.3-28.3,27.8-28.3c15.5,0,27.8,11.3,27.8,28.3
			S573.6,170.6,558.1,170.6z"/>
		<path class="st0" d="M487.3,127.3c0-18.1-14.6-32.7-32.7-32.7h-38.1V190h21.8v-31.3h10.3l18,31.3H490l-20.3-35
			C480.2,149.7,487.3,139,487.3,127.3z M454.6,139.6h-16.3v-24.5h16.3c6,0,10.9,5.3,10.9,12.3C465.5,134.3,460.6,139.6,454.6,139.6z
			"/>
		<path class="st0" d="M344.2,160h14.3c18.8,0,33.4-14.6,33.4-32.7c0-18.1-14.6-32.7-33.4-32.7h-36.1V190h21.8V160z M344.2,115.1
			h14.3c6.7,0,11.6,5.3,11.6,12.3c0,6.9-4.9,12.3-11.6,12.3h-14.3V115.1z"/>
	</g>
	<g id="Symbol_2_">
		<path id="Shape_2_" class="st0" d="M222.3,82.5L121.5,24.2c-0.5-0.3-1.1-0.3-1.5,0L19.1,82.5c-0.5,0.3-0.8,0.8-0.8,1.3v116.4
			c0,0.6,0.3,1.1,0.8,1.3l100.8,58.2c0.2,0.1,0.5,0.2,0.8,0.2c0.3,0,0.5-0.1,0.8-0.2l100.8-58.2c0.5-0.3,0.8-0.8,0.8-1.3V83.8
			C223.1,83.2,222.8,82.7,222.3,82.5z M36.8,93.6l83.9-48.4l83.9,48.4v96.9l-83.9,48.4l-83.9-48.4V93.6z"/>
		<circle id="Circle_3_" class="st1" cx="208.1" cy="93.1" r="22.7"/>
	</g>
</g>
</svg>
